<?xml version="1.0" standalone="no"?>
<!DOCTYPE svg PUBLIC "-//W3C//DTD SVG 20010904//EN"
 "http://www.w3.org/TR/2001/REC-SVG-20010904/DTD/svg10.dtd">
<svg version="1.0" xmlns="http://www.w3.org/2000/svg"
 width="968.000000pt" height="968.000000pt" viewBox="0 0 968.000000 968.000000"
 preserveAspectRatio="xMidYMid meet">
<metadata>
Created by potrace 1.14, written by Peter Selinger 2001-2017
</metadata>
<g transform="translate(0.000000,968.000000) scale(0.100000,-0.100000)"
fill="#000000" stroke="none">
<path d="M2520 9665 c-14 -8 -41 -22 -60 -33 -144 -78 -176 -96 -182 -106 -4
-6 -8 -8 -8 -4 0 4 -26 -8 -57 -26 -54 -31 -142 -80 -205 -113 -15 -8 -30 -19
-33 -24 -4 -5 -11 -7 -16 -4 -5 4 -9 3 -9 -2 0 -4 -19 -17 -43 -28 -23 -11
-44 -22 -47 -25 -5 -5 -33 -20 -135 -74 -33 -17 -61 -34 -63 -38 -2 -5 -7 -8
-12 -8 -5 0 -52 -25 -105 -55 -54 -30 -99 -55 -100 -55 -2 0 -67 -36 -145 -80
-78 -44 -146 -80 -150 -80 -5 0 -10 -3 -12 -7 -1 -5 -25 -20 -53 -34 -70 -36
-158 -85 -237 -130 -36 -22 -71 -39 -77 -39 -6 0 -11 -4 -11 -10 0 -5 -9 -10
-20 -10 -11 0 -23 -6 -26 -14 -3 -8 -19 -18 -35 -21 -16 -4 -29 -11 -29 -16 0
-6 -4 -8 -9 -5 -5 4 -11 2 -13 -2 -1 -4 -43 -30 -93 -57 -49 -26 -93 -53 -97
-59 -4 -6 -8 -7 -8 -2 0 4 -11 1 -23 -7 -13 -9 -62 -36 -108 -62 -46 -25 -85
-48 -87 -50 -2 -2 5 -17 17 -34 12 -16 27 -42 34 -58 21 -47 90 -168 101 -175
6 -4 8 -8 3 -8 -4 0 4 -18 18 -40 14 -22 25 -44 25 -49 0 -5 3 -11 8 -13 4 -1
27 -42 52 -90 25 -48 48 -88 53 -88 4 0 7 -9 7 -19 0 -11 4 -22 9 -25 5 -3 20
-27 34 -53 13 -27 34 -64 45 -83 12 -19 34 -60 49 -90 15 -30 31 -56 36 -58 4
-2 7 -8 7 -14 0 -5 9 -23 21 -39 11 -16 17 -29 13 -29 -4 0 0 -8 8 -17 8 -10
33 -52 56 -94 49 -93 66 -123 72 -129 3 -3 16 -27 30 -55 13 -27 27 -52 30
-55 3 -3 16 -25 29 -50 13 -25 38 -72 56 -105 18 -33 41 -76 51 -95 11 -19 21
-37 24 -40 3 -3 18 -30 35 -60 16 -30 39 -73 52 -95 13 -22 28 -52 34 -67 6
-16 14 -28 18 -28 3 0 12 -14 20 -31 7 -17 39 -77 71 -132 67 -119 115 -206
144 -262 12 -22 24 -41 29 -43 4 -2 7 -9 7 -14 0 -6 20 -45 44 -87 24 -42 59
-105 79 -141 19 -36 52 -94 72 -130 21 -36 54 -96 75 -135 21 -38 54 -99 74
-133 20 -35 36 -66 36 -68 0 -2 13 -25 29 -52 16 -27 50 -89 77 -138 26 -49
51 -90 56 -92 4 -2 8 -8 8 -14 0 -5 33 -69 74 -141 40 -73 90 -163 111 -202
21 -38 52 -95 70 -125 17 -30 34 -62 38 -70 4 -8 18 -33 30 -55 13 -22 38 -69
57 -105 19 -36 37 -67 40 -70 5 -5 101 -178 145 -262 11 -21 23 -38 27 -38 5
0 8 -6 8 -14 0 -8 20 -49 45 -90 25 -42 45 -78 45 -81 0 -2 15 -30 34 -62 43
-75 79 -140 129 -233 22 -41 43 -79 47 -85 4 -5 25 -41 46 -80 20 -38 46 -83
55 -100 10 -16 27 -48 38 -70 11 -22 31 -58 44 -80 13 -22 43 -76 67 -120 64
-118 64 -118 78 -133 6 -7 12 -18 12 -23 0 -6 19 -43 42 -82 23 -40 43 -78 44
-85 2 -8 9 -21 16 -30 8 -10 23 -35 35 -57 12 -22 35 -65 52 -95 17 -30 47
-84 66 -120 19 -36 40 -72 45 -80 5 -8 100 -179 211 -380 111 -201 218 -394
237 -430 20 -36 46 -83 59 -105 12 -22 31 -56 41 -75 29 -55 46 -84 61 -102 8
-10 11 -18 6 -18 -4 0 -2 -7 5 -15 14 -17 48 -77 80 -140 11 -22 25 -47 30
-55 6 -8 26 -44 46 -80 83 -151 133 -241 182 -330 20 -36 56 -101 82 -145 25
-44 53 -96 63 -115 10 -19 28 -53 41 -75 12 -22 37 -67 55 -100 18 -33 39 -68
46 -79 15 -19 35 -14 35 10 0 8 5 14 12 14 6 0 9 3 5 6 -3 3 14 39 39 79 24
40 44 75 44 78 0 4 14 30 31 59 17 29 44 76 59 103 15 28 43 79 63 115 21 36
47 85 59 110 13 25 26 47 29 50 3 3 25 41 49 85 78 145 102 188 151 273 27 47
49 88 49 91 0 4 11 23 25 44 14 20 23 37 20 37 -2 0 11 25 30 55 19 30 35 56
35 59 0 2 17 35 39 73 21 37 49 88 63 113 14 25 34 61 45 80 11 19 39 71 63
115 23 44 46 85 50 90 4 6 29 51 55 100 27 50 52 91 57 93 4 2 8 12 8 23 0 10
5 19 10 19 6 0 10 5 10 10 0 6 40 81 88 168 49 86 105 186 124 222 54 100 79
144 89 156 5 6 6 14 2 17 -3 4 -1 7 5 7 7 0 12 4 12 9 0 6 15 36 34 68 35 61
91 163 135 248 14 28 28 52 31 55 5 5 37 62 54 97 6 13 15 23 19 23 5 0 6 4 3
9 -3 5 3 20 14 34 11 14 20 27 20 30 0 2 52 98 116 213 64 115 135 243 157
284 22 41 51 92 64 112 13 21 23 40 23 42 0 3 17 33 37 68 21 35 38 65 38 68
0 3 5 12 10 20 5 8 19 33 31 55 11 22 41 76 66 120 25 44 60 107 78 140 18 33
55 99 82 146 26 48 48 90 48 93 0 4 5 12 10 19 16 18 230 407 230 418 0 5 5 9
11 9 5 0 8 4 5 9 -3 5 1 14 9 21 8 7 15 18 15 25 0 7 7 18 15 25 8 7 12 16 9
21 -3 5 -2 9 3 9 4 0 14 15 22 33 8 17 21 40 29 50 8 9 11 17 6 17 -5 0 -4 4
1 8 12 8 35 48 67 112 13 25 25 47 28 50 3 3 18 30 34 60 46 86 50 93 64 108
7 7 10 18 7 23 -4 5 -1 9 4 9 6 0 11 4 11 8 0 9 110 214 120 222 3 3 21 37 40
75 19 39 38 72 43 73 4 2 7 7 7 12 0 4 25 52 56 106 31 55 68 122 83 149 15
28 61 110 102 183 71 128 102 183 155 282 14 25 35 63 48 85 12 22 42 76 66
120 24 44 51 92 61 107 11 14 19 29 19 32 0 3 21 43 46 88 45 79 70 125 117
213 12 22 24 42 27 45 3 3 21 34 39 70 19 36 43 81 54 100 11 19 44 80 74 135
30 55 59 102 64 103 5 2 9 8 9 14 0 13 32 81 41 88 3 3 21 34 39 70 19 36 41
76 50 90 16 24 44 75 132 238 35 65 37 73 21 79 -10 4 -43 21 -73 38 -131 75
-196 109 -202 107 -5 -1 -8 2 -8 7 0 5 -16 15 -35 22 -19 7 -35 16 -35 20 0 4
-10 11 -22 15 -13 3 -35 15 -50 26 -16 11 -28 16 -28 11 0 -4 -4 -3 -8 2 -6 9
-51 34 -147 84 -16 9 -32 18 -35 21 -7 7 -97 57 -140 78 -19 9 -37 20 -40 23
-3 3 -20 12 -37 20 -18 8 -33 16 -33 20 0 3 -16 11 -35 19 -19 8 -35 18 -35
24 0 5 -3 6 -6 3 -4 -4 -19 2 -33 12 -14 10 -39 25 -56 33 -16 8 -46 24 -65
35 -40 23 -126 71 -185 103 -22 12 -58 31 -80 44 -22 12 -67 37 -100 55 -33
19 -80 45 -105 59 -260 144 -414 230 -460 254 -30 17 -61 35 -67 40 -7 6 -13
7 -13 2 0 -5 -4 -4 -8 2 -8 13 -66 44 -80 44 -6 0 -19 -17 -29 -37 -21 -41
-59 -109 -100 -182 -14 -25 -40 -71 -56 -101 -17 -30 -41 -73 -54 -95 -12 -22
-36 -67 -53 -100 -18 -33 -38 -67 -46 -76 -8 -9 -12 -18 -9 -21 3 -3 -1 -11
-10 -18 -8 -7 -15 -17 -15 -22 0 -5 -17 -40 -39 -76 -34 -59 -55 -97 -120
-217 -9 -16 -22 -36 -28 -43 -7 -7 -13 -18 -13 -23 0 -6 -25 -53 -55 -105 -30
-53 -55 -97 -55 -98 0 -2 -36 -67 -80 -146 -44 -79 -80 -147 -80 -151 0 -4 -6
-14 -13 -21 -7 -7 -18 -24 -24 -38 -7 -14 -35 -65 -63 -115 -28 -49 -59 -106
-68 -125 -9 -19 -20 -37 -23 -40 -3 -3 -27 -45 -53 -94 -27 -49 -61 -111 -77
-138 -16 -26 -25 -48 -21 -48 4 0 2 -4 -4 -8 -12 -8 -45 -68 -43 -78 0 -4 -3
-10 -9 -13 -5 -3 -15 -18 -23 -33 -8 -15 -44 -82 -81 -148 -38 -67 -68 -126
-68 -131 0 -5 -4 -9 -10 -9 -5 0 -10 -5 -10 -10 0 -6 -27 -58 -60 -117 -33
-58 -60 -109 -60 -114 0 -5 -5 -9 -12 -9 -6 0 -8 -3 -5 -7 4 -3 3 -11 -2 -17
-5 -6 -21 -33 -37 -61 -15 -27 -36 -66 -47 -85 -11 -19 -30 -54 -43 -78 -13
-23 -35 -62 -49 -87 -54 -99 -73 -133 -115 -210 -23 -44 -50 -91 -59 -105 -8
-14 -25 -43 -37 -65 -11 -22 -35 -66 -53 -98 -127 -227 -151 -271 -151 -279 0
-4 -4 -8 -10 -8 -5 0 -10 -3 -9 -7 2 -13 -13 -53 -20 -53 -3 0 -29 -43 -56
-95 -56 -105 -54 -105 -101 -15 -16 30 -31 57 -34 60 -3 3 -23 39 -44 80 -21
41 -48 87 -58 103 -11 15 -16 27 -11 27 4 0 4 4 -2 8 -11 8 -29 39 -71 122
-16 30 -32 57 -36 58 -4 2 -8 7 -8 12 0 4 -40 80 -90 169 -49 89 -90 166 -90
171 0 5 -3 10 -7 12 -8 3 -30 40 -75 128 -13 25 -26 47 -30 48 -5 2 -8 8 -8
13 0 4 -37 75 -83 156 -46 81 -86 155 -90 163 -4 8 -20 38 -35 65 -63 112 -85
151 -102 180 -9 17 -34 62 -55 100 -58 108 -59 109 -74 128 -8 9 -11 17 -7 17
4 0 -2 13 -13 29 -12 16 -21 34 -21 40 0 6 -4 11 -8 11 -4 0 -13 12 -19 28 -7
15 -35 68 -63 117 -28 50 -56 101 -63 115 -6 14 -16 28 -22 32 -5 4 -6 8 -1 8
5 0 2 8 -6 18 -9 9 -32 49 -53 87 -20 39 -45 84 -54 100 -29 49 -93 167 -115
210 -12 22 -23 42 -26 45 -3 3 -10 14 -16 25 -78 143 -102 187 -126 228 -15
26 -28 50 -28 52 0 3 -20 39 -45 81 -25 41 -45 82 -45 89 0 7 -4 15 -9 17 -4
2 -25 33 -45 71 -20 37 -52 97 -72 135 -20 37 -40 72 -44 77 -4 6 -21 35 -37
65 -17 30 -48 87 -69 125 -20 39 -50 92 -66 118 -15 26 -28 52 -28 57 0 5 -6
15 -12 22 -7 7 -28 43 -47 78 -19 36 -43 79 -52 95 -10 17 -29 50 -42 75 -23
43 -67 123 -71 127 -1 1 -13 -4 -26 -12z"/>
</g>
</svg>
